<svg width="50" height="50" viewBox="0 0 50 50" fill="none" xmlns="http://www.w3.org/2000/svg">
<path fill-rule="evenodd" clip-rule="evenodd" d="M34.6291 31.6084L43.4708 40.45L40.525 43.398L31.6916 34.5646C28.7466 36.7826 25.0707 37.8029 21.4038 37.42C17.7369 37.0371 14.3511 35.2795 11.9278 32.501C9.50442 29.7224 8.22343 26.1291 8.34259 22.4442C8.46174 18.7593 9.97218 15.2562 12.57 12.64C15.1677 10.0238 18.66 8.48867 22.344 8.34348C26.028 8.19829 29.6303 9.45384 32.4259 11.8575C35.2215 14.2611 37.0029 17.6344 37.4117 21.2985C37.8205 24.9627 36.8263 28.6456 34.6291 31.6063V31.6084ZM33.3333 22.9167C33.3333 20.154 32.2358 17.5045 30.2823 15.551C28.3288 13.5975 25.6793 12.5 22.9166 12.5C20.154 12.5 17.5044 13.5975 15.5509 15.551C13.5974 17.5045 12.5 20.154 12.5 22.9167C12.5 25.6794 13.5974 28.3289 15.5509 30.2824C17.5044 32.2359 20.154 33.3334 22.9166 33.3334C25.6793 33.3334 28.3288 32.2359 30.2823 30.2824C32.2358 28.3289 33.3333 25.6794 33.3333 22.9167Z" fill="black"/>
</svg>
