<svg width="30" height="30" viewBox="0 0 30 30" fill="none" xmlns="http://www.w3.org/2000/svg">
<path fill-rule="evenodd" clip-rule="evenodd" d="M15.6377 10.995V13.1163C16.0819 12.4396 16.6942 11.8899 17.4147 11.5209C18.1351 11.1519 18.939 10.9763 19.7477 11.0113C24.0665 11.0113 25.0002 13.7113 25.0002 17.2238V24.375H21.0002V18.035C21.0002 16.5225 20.6952 14.5775 18.3402 14.5775C16.0565 14.5775 15.6665 16.2238 15.6665 17.9225V24.375H11.679V10.995H15.6377ZM9.0002 7.6325C8.99971 8.02875 8.88225 8.41604 8.66255 8.74582C8.44286 9.07559 8.13069 9.33316 7.7652 9.48625C7.39986 9.6381 6.99761 9.67782 6.60962 9.60036C6.22164 9.5229 5.86547 9.33175 5.58645 9.05125C5.30691 8.77057 5.1166 8.41351 5.03944 8.02496C4.96229 7.63641 5.00174 7.23372 5.15284 6.86753C5.30394 6.50135 5.55994 6.18801 5.88864 5.96692C6.21734 5.74584 6.60407 5.62688 7.0002 5.625C7.26348 5.625 7.52417 5.67698 7.76731 5.77796C8.01045 5.87893 8.23126 6.02692 8.41708 6.21344C8.60289 6.39995 8.75005 6.62131 8.85012 6.86483C8.95019 7.10835 9.00119 7.36923 9.0002 7.6325Z" fill="white"/>
<path d="M9 11.0112H5V24.375H9V11.0112Z" fill="white"/>
</svg>
