<svg width="30" height="30" viewBox="0 0 30 30" fill="none" xmlns="http://www.w3.org/2000/svg">
<path d="M12.0026 26.2826V17.1901H8.52256C8.34188 17.1901 8.1686 17.1183 8.04084 16.9905C7.91308 16.8628 7.84131 16.6895 7.84131 16.5088V12.9126C7.84131 12.7319 7.91308 12.5586 8.04084 12.4308C8.1686 12.3031 8.34188 12.2313 8.52256 12.2313H11.9888V8.75006C11.9059 7.9245 12.0047 7.09079 12.2784 6.3075C12.552 5.52421 12.9938 4.81033 13.5728 4.216C14.1518 3.62167 14.8538 3.16131 15.6297 2.86724C16.4055 2.57318 17.2364 2.45254 18.0638 2.51381H20.9638C21.1462 2.51345 21.3214 2.58481 21.4517 2.71249C21.5819 2.84017 21.6568 3.01394 21.6601 3.19631V6.24131C21.6561 6.42335 21.5811 6.59662 21.4509 6.72396C21.3208 6.85131 21.1459 6.9226 20.9638 6.92256H19.1513C17.1938 6.92256 16.8176 7.85006 16.8176 9.21381V12.2301H21.4713C21.568 12.2269 21.6643 12.2448 21.7534 12.2825C21.8425 12.3203 21.9223 12.377 21.9873 12.4488C22.0522 12.5205 22.1008 12.6055 22.1295 12.6979C22.1583 12.7903 22.1666 12.8879 22.1538 12.9838L21.7326 16.5938C21.7115 16.7592 21.6305 16.911 21.5049 17.0207C21.3794 17.1303 21.218 17.1902 21.0513 17.1888H16.8463V26.2813C16.8487 26.442 16.8188 26.6014 16.7583 26.7503C16.6979 26.8992 16.6082 27.0344 16.4945 27.1479C16.3809 27.2615 16.2456 27.351 16.0966 27.4113C15.9477 27.4716 15.7882 27.5013 15.6276 27.4988H13.2063C13.0469 27.4993 12.889 27.4681 12.7419 27.4069C12.5947 27.3457 12.4612 27.2559 12.3491 27.1425C12.237 27.0292 12.1487 26.8946 12.0892 26.7468C12.0297 26.5989 12.0002 26.4419 12.0026 26.2826Z" fill="white"/>
</svg>
